<svg width="193" height="32" viewBox="0 0 193 32" fill="none" xmlns="http://www.w3.org/2000/svg">
<path d="M186.142 6.19336V8.0369H183.873V15.3544H181.437V8.0369H179.168V6.19336H186.145H186.142Z" fill="white"/>
<path d="M182.647 20.3667C177.043 20.3667 172.485 15.7989 172.485 10.1834C172.485 4.56779 177.043 0 182.647 0C188.25 0 192.808 4.56779 192.808 10.1834C192.808 15.7989 188.25 20.3667 182.647 20.3667ZM182.647 1.41027C177.82 1.41027 173.893 5.34655 173.893 10.1834C173.893 15.0202 177.82 18.9565 182.647 18.9565C187.473 18.9565 191.401 15.0202 191.401 10.1834C191.401 5.34655 187.473 1.41027 182.647 1.41027Z" fill="white"/>
<path d="M22.544 1.50098V7.44788H15.2111V31.1194H7.33004V7.44788H0V1.50098H22.544Z" fill="white"/>
<path d="M36.3334 0.807129C27.1553 0.807129 21.6055 6.57846 21.6055 16.3342C21.6055 26.09 27.1185 31.8103 36.3334 31.8103C45.5482 31.8103 51.0302 26.107 51.0302 16.3342C51.0302 6.56147 45.5228 0.807129 36.3334 0.807129ZM36.3334 6.89279C40.2047 6.89279 42.9768 10.4156 42.9768 16.2946C42.9768 22.1735 40.2442 25.7388 36.3334 25.7388C32.4225 25.7388 29.6617 22.2188 29.6617 16.2946C29.6617 10.3703 32.4762 6.89279 36.3334 6.89279Z" fill="white"/>
<path d="M60.7257 1.50098V25.2801H72.8228V31.1194H52.8418V1.50098H60.7257Z" fill="white"/>
<path d="M81.8849 1.50098V25.2801H93.9848V31.1194H74.001V1.50098H81.8849Z" fill="white"/>
<path d="M115.896 1.49268V7.17622H103.028V13.1429H115.17V18.7812H103.028V25.4049H116.315V31.1196H95.1553V1.49268H115.896Z" fill="white"/>
<path d="M128.479 1.50098L137.929 20.6443C138.598 21.9866 138.434 22.0065 138.434 20.8567V1.50098H145.564V31.1222H135.756L125.783 11.336C125.439 10.5459 125.586 10.696 125.586 11.6475V31.1222H118.459V1.50098H128.482H128.479Z" fill="white"/>
<path d="M167.195 7.97749C164.813 6.95236 162.603 6.67201 160.518 6.67201C157.234 6.67201 155.454 7.55271 155.454 9.29147C155.454 10.529 156.59 11.5768 158.418 12.1686C161.781 13.2759 164.477 13.7941 166.39 15.2384C168.473 16.8582 169.456 18.9934 169.456 21.763C169.456 28.2026 164.901 31.8019 156.607 31.8019C153.745 31.8019 150.673 31.1251 147.596 30.2727L148.282 23.6547C151.187 24.9743 153.88 25.5605 156.096 25.5605C159.246 25.5605 161.157 24.5694 161.157 22.6154C161.157 20.398 158.89 19.9336 155.239 18.7017C149.548 16.7789 147.384 14.4455 147.384 10.0589C147.384 4.1828 151.702 0.810059 159.71 0.810059C162.558 0.810059 165.24 1.14988 167.783 1.87767L167.195 7.98032V7.97749Z" fill="white"/>
</svg>